<svg width="161" height="158" viewBox="0 0 161 158" fill="none" xmlns="http://www.w3.org/2000/svg">
<path d="M150.469 50.9813C147.986 48.2071 145.351 45.5738 142.575 43.0941C141.625 42.2125 140.675 41.332 139.739 40.4399C137.16 37.9822 134.57 35.5346 131.97 33.0972C127.844 29.2129 123.577 25.1968 119.447 21.1811C114.188 16.0718 107.107 9.5086 98.9203 4.05987C93.3554 0.353696 87.5069 -0.549377 81.5369 1.36158C78.5863 2.30503 75.4857 3.37718 72.8682 5.15614C65.1506 10.4 58.5424 15.201 52.6659 19.8318C45.5157 25.4671 38.3232 31.2917 31.3684 36.9245C25.8503 41.3933 20.1432 46.0149 14.4946 50.5137C8.71677 55.1139 5.13257 60.2208 3.53945 66.1252C2.35708 70.3307 1.68293 74.6631 1.53148 79.0298C1.43085 83.4994 1.55745 88.0404 1.68015 92.4312C1.78272 96.1316 1.88984 99.958 1.85933 103.714C1.85154 104.726 1.84743 105.739 1.84701 106.755C1.83467 112.326 1.82233 118.086 0.797253 123.523C-1.15033 133.844 2.80973 142.441 12.5613 149.077C19.6641 153.907 27.9615 154.885 35.9849 155.832C47.1614 157.12 58.4043 157.746 69.6547 157.706C75.4572 157.706 81.5064 157.562 87.8827 157.277L98.919 156.85C108.203 156.49 118.055 156.109 127.904 155.722C133.963 155.541 139.964 154.484 145.721 152.584C151.317 150.702 155.394 147.097 157.501 142.157C159.55 137.36 160.605 133.21 160.727 129.468C161.317 110.099 160.656 90.7127 158.747 71.4296C157.96 63.3247 155.174 56.4463 150.469 50.9813ZM58.5677 144.063C58.7021 142.632 58.8274 141.28 58.8624 139.931C59.0122 133.826 59.1509 127.721 59.2786 121.614C59.405 115.826 59.5361 110.039 59.672 104.253C59.7661 100.368 59.907 97.4008 60.1303 94.6302C60.4685 90.4136 61.9312 88.7134 65.9251 87.8804C70.3234 86.8863 74.7963 86.2575 79.2985 86.0014C82.8995 85.8713 86.5915 86.0241 90.1588 86.1756C92.3622 86.2679 94.6383 86.3648 96.8845 86.3928C98.9145 86.4188 99.9175 87.3031 100.236 89.3584C100.495 91.0379 100.807 92.7394 101.107 94.3851C101.913 98.2363 102.427 102.143 102.645 106.073C102.904 115.106 102.854 123.988 102.802 133.39C102.782 136.988 102.768 140.62 102.76 144.286C87.9723 145.353 73.4564 145.755 58.4346 145.53C58.4775 145.024 58.5236 144.54 58.5677 144.063ZM114.063 107.529C113.518 101.02 112.068 94.5008 110.665 88.1958L110.222 86.1964C108.937 80.3842 105.064 76.9271 99.0197 76.1989C84.3362 74.4296 73.1376 74.7222 62.7083 77.1514C53.6617 79.2587 48.9233 84.6866 48.2234 93.7447C47.7924 99.3247 47.8424 105.022 47.8911 110.531C47.9047 112.062 47.9177 113.592 47.9216 115.12C47.9359 120.887 48.0066 126.747 48.0748 132.416C48.115 135.769 48.1518 139.124 48.1851 142.478C48.1903 143.088 48.1345 143.719 48.0689 144.45C48.0514 144.645 48.0332 144.852 48.0151 145.066C40.6013 144.722 34.3632 144.184 28.2185 142.771C25.2608 142.092 21.8655 141.236 19 139.677C13.7909 136.844 11.3583 132.948 11.5628 127.763C11.7323 123.476 11.781 118.886 11.7115 113.728C11.5817 104.017 11.3869 94.1445 11.1993 84.5989L11.1103 80.0533C11.0013 74.5467 12.0763 69.9465 14.3959 65.9919C15.5865 63.9607 16.8934 61.8539 18.6118 60.3617C27.3908 52.7394 35.3876 46.0079 43.0572 39.7789C51.3896 33.0168 61.1106 25.1777 71.0459 17.7758C74.5405 15.1717 78.5116 13.1951 83.4046 11.0274C84.7523 10.4093 86.2156 10.0836 87.6984 10.0711C90.0744 10.0711 92.4531 10.9559 94.8849 12.7323C101.725 17.731 107.819 23.7531 113.712 29.5763C115.277 31.1231 116.842 32.6708 118.423 34.2021C119.908 35.6399 121.39 37.0797 122.871 38.5214C127.993 43.502 133.289 48.6528 138.623 53.5885C143.672 58.1276 146.87 64.3735 147.604 71.1285C148.475 78.7483 149.221 85.6281 149.532 92.6549C149.963 102.385 150.196 113.066 150.246 125.308C150.19 128.691 149.734 132.055 148.889 135.331C148.596 136.862 147.836 138.265 146.715 139.346C145.593 140.428 144.164 141.134 142.625 141.369C141.702 141.548 140.779 141.743 139.857 141.938C137.458 142.5 135.025 142.907 132.575 143.159C128.503 143.484 124.434 143.614 120.126 143.755C118.481 143.809 116.808 143.863 115.097 143.929C115.064 143.056 115.029 142.209 114.995 141.384C114.909 139.251 114.826 137.236 114.781 135.234C114.717 132.351 114.698 129.414 114.68 126.574C114.635 120.322 114.593 113.858 114.063 107.529Z" fill="black"/>
</svg>
