<svg width="66" height="63" viewBox="0 0 66 63" fill="none" xmlns="http://www.w3.org/2000/svg">
<rect x="3" y="1" width="60" height="60" rx="10" fill="#FAFAFA"/>
<path d="M33.3711 35.3047C33.2018 35.3047 32.8893 35.2852 32.4336 35.2461C31.9779 35.194 31.4375 35.0443 30.8125 34.7969C30.1875 34.5495 29.6797 34.3086 29.2891 34.0742L28.7031 33.7422H30.0312C30.7344 33.7422 31.5742 33.6836 32.5508 33.5664C33.0977 33.4883 33.9766 33.293 35.1875 32.9805C36.4115 32.668 37.7786 32.3099 39.2891 31.9062C40.8776 31.4766 42.4076 31.0729 43.8789 30.6953C44.1133 30.6302 44.3477 30.5716 44.582 30.5195C44.556 30.4805 44.5365 30.4349 44.5234 30.3828C44.3932 29.9922 44.1914 29.5885 43.918 29.1719C43.6445 28.7422 43.2148 28.4167 42.6289 28.1953C41.7044 27.8698 40.9622 27.5247 40.4023 27.1602L39.543 26.6328L39.9531 26.6914C40.3177 26.7435 40.6953 26.7695 41.0859 26.7695C41.8932 26.7695 42.4271 26.6003 42.6875 26.2617C42.974 25.793 43.3385 25.526 43.7812 25.4609H43.8984C44.3281 25.4609 44.8815 25.7279 45.5586 26.2617C45.9883 26.5872 46.4049 26.8802 46.8086 27.1406C47.3164 27.4661 47.7201 27.7721 48.0195 28.0586C48.2539 28.2799 48.3711 28.5078 48.3711 28.7422C48.3711 29.0677 48.1042 29.4453 47.5703 29.875C49.1979 29.6016 50.3828 29.3672 51.125 29.1719C51.8802 28.9766 52.3945 28.7292 52.668 28.4297C52.7982 28.3125 52.9935 28.2539 53.2539 28.2539C53.4753 28.2539 53.8203 28.3125 54.2891 28.4297C54.7578 28.5469 55.3112 28.7487 55.9492 29.0352C56.6003 29.3216 57.0234 29.5495 57.2188 29.7188C57.3099 29.8229 57.3555 29.9466 57.3555 30.0898C57.3555 30.5326 57.1276 30.9167 56.6719 31.2422C56.5026 31.3594 56.3203 31.418 56.125 31.418C55.9818 31.418 55.8385 31.3919 55.6953 31.3398C55.2266 31.0794 54.1784 30.9492 52.5508 30.9492C50.9232 30.9622 48.4167 31.2422 45.0312 31.7891C42.6094 32.1927 40.8581 32.5833 39.7773 32.9609C38.7096 33.3255 37.8372 33.6966 37.1602 34.0742C36.6133 34.3607 35.9427 34.6602 35.1484 34.9727C34.5495 35.194 33.957 35.3047 33.3711 35.3047ZM34.6797 48.7031C34.6536 48.7031 34.6341 48.6901 34.6211 48.6641C34.582 48.5339 34.5039 48.3385 34.3867 48.0781C34.1784 47.6615 34.0026 47.2122 33.8594 46.7305C33.7943 46.5221 33.7617 46.3333 33.7617 46.1641C33.7617 45.9557 33.8138 45.793 33.918 45.6758L34.1719 45.4805C34.4714 45.2591 34.7643 44.9727 35.0508 44.6211C35.5195 44.0352 35.7539 43.0977 35.7539 41.8086C35.7539 41.6654 35.7409 41.4115 35.7148 41.0469C35.7018 40.6823 35.6628 40.2852 35.5977 39.8555L35.5 39.2305C35.5651 39.2956 35.7279 39.569 35.9883 40.0508C36.2617 40.5326 36.5286 41.125 36.7891 41.8281C36.8151 41.8932 36.8411 41.9648 36.8672 42.043C36.8672 42.043 36.8737 42.0365 36.8867 42.0234C36.9388 42.0104 36.9974 41.9909 37.0625 41.9648C37.1406 41.9388 37.2188 41.9128 37.2969 41.8867C37.388 41.8607 37.4857 41.8281 37.5898 41.7891L39.8945 41.125C40.4674 40.9688 41.1315 40.8255 41.8867 40.6953C41.8607 40.6823 41.8281 40.6693 41.7891 40.6562C41.5026 40.6042 41.2943 40.168 41.1641 39.3477C41.151 39.2695 41.1445 39.1003 41.1445 38.8398C41.1445 36.0794 40.7865 34.1589 40.0703 33.0781L40.4609 33.4492C40.7083 33.7096 41.0078 34.0091 41.3594 34.3477C41.724 34.6862 42.0755 35.0052 42.4141 35.3047C42.7656 35.5911 43.0391 35.7865 43.2344 35.8906C43.4427 36.0339 43.5599 36.3138 43.5859 36.7305L43.6055 37.1016C43.6055 37.3099 43.5794 37.6094 43.5273 38L44.1719 37.7266C45.6172 37.1406 46.4766 36.7565 46.75 36.5742C46.8672 36.5091 47.0169 36.4766 47.1992 36.4766C47.2773 36.4766 47.3555 36.4831 47.4336 36.4961C47.6159 36.0273 47.7591 35.5326 47.8633 35.0117C47.9414 34.6471 47.9805 34.3477 47.9805 34.1133C47.9805 34.0091 47.974 33.918 47.9609 33.8398C47.9089 33.6966 47.7982 33.625 47.6289 33.625C47.5638 33.625 47.4271 33.651 47.2188 33.7031C47.0104 33.7422 46.6458 33.8724 46.125 34.0938C45.6172 34.3021 45.0443 34.4974 44.4062 34.6797C44.2891 34.7188 44.1523 34.7383 43.9961 34.7383C43.4232 34.7383 42.7005 34.6211 41.8281 34.3867L41.457 34.2891L42.0234 34.1133C42.401 34.0091 42.8568 33.8724 43.3906 33.7031C43.9245 33.5339 44.4518 33.3711 44.9727 33.2148C45.5065 33.0456 45.9557 32.8958 46.3203 32.7656C46.6849 32.6224 46.8997 32.4596 46.9648 32.2773C46.9909 32.1992 47.0039 32.1276 47.0039 32.0625C47.0169 31.9844 47.0365 31.9193 47.0625 31.8672C47.1146 31.763 47.3034 31.7109 47.6289 31.7109C48.2018 31.737 48.9635 32.043 49.9141 32.6289C50.5911 33.0586 50.9297 33.3516 50.9297 33.5078C50.9297 33.5469 50.8906 33.5729 50.8125 33.5859C50.5521 33.638 50.2331 33.9375 49.8555 34.4844C49.4909 35.0312 49.1393 35.6042 48.8008 36.2031C48.6836 36.4115 48.5794 36.5938 48.4883 36.75C48.5534 36.776 48.625 36.8021 48.7031 36.8281C49.5365 37.1667 49.9531 37.3945 49.9531 37.5117C49.9531 37.5638 49.6862 37.7135 49.1523 37.9609C48.7096 38.1693 48.2083 38.3581 47.6484 38.5273C47.2708 38.6445 46.9323 38.7031 46.6328 38.7031C46.4896 38.7031 46.3529 38.6901 46.2227 38.6641C45.9232 38.612 45.5456 38.5794 45.0898 38.5664C44.6471 38.5404 44.1979 38.5273 43.7422 38.5273L43.4492 38.5469C43.4102 38.7422 43.3711 38.9635 43.332 39.2109C43.306 39.2891 43.293 39.3542 43.293 39.4062C43.1628 39.9271 42.9935 40.2982 42.7852 40.5195C43.5273 40.3893 44.3411 40.2656 45.2266 40.1484C47.4531 39.849 49.6146 39.6081 51.7109 39.4258C53.6771 39.2565 55.1484 39.1719 56.125 39.1719H56.3203C57.5964 39.224 58.4688 39.4388 58.9375 39.8164C59.4193 40.194 59.7383 40.6172 59.8945 41.0859C59.9987 41.3333 60.0508 41.5807 60.0508 41.8281C60.0508 41.8802 60.0443 41.9909 60.0312 42.1602C60.0312 42.3294 59.9271 42.4661 59.7188 42.5703C59.6536 42.6094 59.582 42.6289 59.5039 42.6289C59.3216 42.6289 59.0742 42.5443 58.7617 42.375C58.4622 42.1927 58.0846 42.0951 57.6289 42.082C57.1732 42.082 56.7174 42.1211 56.2617 42.1992C55.819 42.2773 55.4479 42.362 55.1484 42.4531L54.6797 42.5898L55.0703 42.375C55.8125 41.9844 56.3919 41.6003 56.8086 41.2227C57.1341 40.9492 57.2969 40.6693 57.2969 40.3828C57.2969 40.3438 57.2904 40.3177 57.2773 40.3047C57.2643 40.2917 57.2383 40.2852 57.1992 40.2852C57.1341 40.2852 57.0365 40.2982 56.9062 40.3242C56.6589 40.4023 56.1315 40.4414 55.3242 40.4414L53.5664 40.4219C52.4336 40.4219 50.8516 40.526 48.8203 40.7344C49.4714 41.0339 49.7969 41.3789 49.7969 41.7695C49.7969 42.1081 49.4648 42.5638 48.8008 43.1367C48.6445 43.2799 48.5208 43.4036 48.4297 43.5078C48.2474 43.7031 47.681 44.237 46.7305 45.1094C46.6914 45.1354 46.6523 45.168 46.6133 45.207C46.6784 45.2201 46.7435 45.2396 46.8086 45.2656C47.4076 45.5781 47.8177 45.8711 48.0391 46.1445C48.1432 46.2487 48.1953 46.3464 48.1953 46.4375C48.1953 46.4766 48.1823 46.5156 48.1562 46.5547C48.0781 46.6589 48.013 46.8737 47.9609 47.1992C47.8958 47.6029 47.8568 48.2279 47.8438 49.0742L47.9805 48.9375C49.0612 47.7917 49.8229 46.9518 50.2656 46.418C50.7995 45.7799 51.0664 45.3177 51.0664 45.0312C51.0664 44.9922 51.0534 44.9336 51.0273 44.8555C51.0013 44.7773 50.9362 44.6992 50.832 44.6211C50.7409 44.543 50.6367 44.4844 50.5195 44.4453C50.4023 44.4062 50.3047 44.3737 50.2266 44.3477L50.0898 44.3281L50.2266 44.25C50.3177 44.1979 50.4219 44.1328 50.5391 44.0547C50.6693 43.9635 50.793 43.8724 50.9102 43.7812C51.0273 43.6901 51.112 43.6055 51.1641 43.5273C51.1901 43.5013 51.2292 43.4883 51.2812 43.4883C51.4766 43.4883 51.7565 43.6315 52.1211 43.918C52.6289 44.3477 52.9219 44.6927 53 44.9531L53.0195 45.1289C53.0195 45.3893 52.9414 45.7148 52.7852 46.1055C52.6419 46.4961 52.4401 46.776 52.1797 46.9453L51.5938 47.2969C50.9818 47.6615 50.2526 48.0846 49.4062 48.5664C48.7552 48.931 48.2344 49.1849 47.8438 49.3281V49.3672C48.0391 49.3802 48.2474 49.3997 48.4688 49.4258C49.3021 49.5169 50.4935 49.8294 52.043 50.3633C53.5664 50.9232 54.6862 51.3984 55.4023 51.7891C56.1315 52.1667 56.5742 52.5117 56.7305 52.8242C56.8216 52.9805 56.8672 53.1432 56.8672 53.3125C56.8672 53.4427 56.8346 53.5794 56.7695 53.7227C56.5872 54.2044 56.3268 54.543 55.9883 54.7383C55.8451 54.8164 55.7083 54.8555 55.5781 54.8555C55.4219 54.8555 55.2721 54.7904 55.1289 54.6602C54.9466 54.4648 54.4518 54.0547 53.6445 53.4297C52.8372 52.8177 51.9518 52.1992 50.9883 51.5742C50.0378 50.9362 49.2565 50.4935 48.6445 50.2461C48.3711 50.1549 48.1042 50.0703 47.8438 49.9922C47.8568 50.5391 47.8763 51.1641 47.9023 51.8672L47.9219 53C47.9219 54.5495 47.8177 55.9362 47.6094 57.1602C47.4141 58.3841 47.1862 59.0352 46.9258 59.1133H46.8867C46.7305 59.1133 46.5091 59.0352 46.2227 58.8789C45.9362 58.7357 45.6497 58.5664 45.3633 58.3711C45.0768 58.1888 44.8815 58.0586 44.7773 57.9805C44.6732 57.9023 44.4583 57.7852 44.1328 57.6289C43.8073 57.4857 43.4492 57.3294 43.0586 57.1602C42.668 57.0039 42.3294 56.8607 42.043 56.7305L41.6133 56.5547L42.2578 56.6328C43.0521 56.75 43.8073 56.8086 44.5234 56.8086C44.7708 56.8086 45.0638 56.7956 45.4023 56.7695C45.7409 56.7435 45.9557 56.6458 46.0469 56.4766C46.125 56.2552 46.2096 55.6888 46.3008 54.7773C46.418 53.4492 46.4766 52.0755 46.4766 50.6562C46.4766 50.2917 46.4701 49.9596 46.457 49.6602C46.1055 49.5951 45.7995 49.543 45.5391 49.5039L44.9727 49.4453L45.7734 49.3281C45.9557 49.3021 46.1771 49.2891 46.4375 49.2891C46.3724 48.0911 46.2031 47.4141 45.9297 47.2578C45.6302 47.1667 45.3633 47.1211 45.1289 47.1211C45.0247 47.1211 44.9141 47.1276 44.7969 47.1406C44.6797 47.1536 44.5365 47.1602 44.3672 47.1602C44.1849 47.3034 44.0091 47.4466 43.8398 47.5898C43.9049 47.681 43.9766 47.7721 44.0547 47.8633C44.1849 48.0195 44.3086 48.1237 44.4258 48.1758C44.543 48.2279 44.6016 48.306 44.6016 48.4102C44.6016 48.5534 44.556 48.7227 44.4648 48.918L44.3672 49.2305C44.3151 49.3867 44.1458 49.6536 43.8594 50.0312C43.7943 50.1224 43.7292 50.2135 43.6641 50.3047C44.1198 50.6302 44.4453 50.8385 44.6406 50.9297C44.9141 51.0859 45.0508 51.3659 45.0508 51.7695C45.0508 52.1211 44.9271 52.4336 44.6797 52.707L44.2695 53.2148C42.9023 55.1159 41.5417 56.2878 40.1875 56.7305C39.3542 56.9648 38.6055 57.082 37.9414 57.082C37.6549 57.082 37.4076 57.056 37.1992 57.0039L36.8672 56.9453L37.8242 56.6328C38.4492 56.4245 39.1784 56.0859 40.0117 55.6172C40.8581 55.1484 41.6198 54.543 42.2969 53.8008C43.2083 52.707 43.6641 51.9258 43.6641 51.457C43.6641 51.2747 43.5924 51.138 43.4492 51.0469L43.4297 51.0078C43.3776 50.9688 43.319 50.8841 43.2539 50.7539C43.0977 50.9102 42.9349 51.0729 42.7656 51.2422C42.3229 51.6589 41.8477 51.9844 41.3398 52.2188C40.5586 52.5312 39.9206 52.7135 39.4258 52.7656L38.6641 52.8633L39.3086 52.5508C39.7253 52.3555 40.207 52.0495 40.7539 51.6328C41.3008 51.2161 41.8021 50.6823 42.2578 50.0312C42.6745 49.3672 42.9479 48.7812 43.0781 48.2734C43.0911 48.2344 43.0977 48.2018 43.0977 48.1758C42.1341 48.931 41.3203 49.4779 40.6562 49.8164C39.8099 50.194 39.0612 50.3828 38.4102 50.3828C38.2148 50.3828 37.8763 50.3372 37.3945 50.2461C36.9128 50.1549 36.3854 49.8815 35.8125 49.4258L36.2422 49.5234C36.5156 49.6016 36.8932 49.6406 37.375 49.6406C37.8568 49.6406 38.4102 49.543 39.0352 49.3477C39.6732 49.1523 40.3503 48.8073 41.0664 48.3125C41.7044 47.8438 42.3294 47.3294 42.9414 46.7695C42.8633 46.7435 42.7852 46.7109 42.707 46.6719L41.2617 46.1055L41.5547 46.1641C41.9844 46.2422 42.375 46.2812 42.7266 46.2812C42.8828 46.2812 43.0716 46.2682 43.293 46.2422C43.3841 46.2422 43.4753 46.2292 43.5664 46.2031C43.6836 46.0859 43.8008 45.9688 43.918 45.8516C44.8555 44.9401 45.6367 44.0938 46.2617 43.3125C46.3659 43.1823 46.4635 43.0586 46.5547 42.9414C45.7995 43.2669 44.849 43.7096 43.7031 44.2695C43.026 44.6081 42.5443 44.8359 42.2578 44.9531C42.0885 45.0182 41.9062 45.0508 41.7109 45.0508C41.2943 45.0508 40.7865 44.9206 40.1875 44.6602C39.6667 44.4518 39.3867 44.3281 39.3477 44.2891L40.3047 44.1914C40.9427 44.1393 41.8021 43.944 42.8828 43.6055C43.8333 43.2799 44.7188 42.8893 45.5391 42.4336C46.3594 41.9648 46.9648 41.5938 47.3555 41.3203C47.3685 41.3073 47.3815 41.3008 47.3945 41.3008C47.4206 41.2487 47.4466 41.1966 47.4727 41.1445C47.5247 41.0404 47.5898 40.9492 47.668 40.8711C45.9622 41.0664 44.2891 41.2943 42.6484 41.5547C40.6693 41.8672 39.4779 42.1081 39.0742 42.2773C38.7747 42.4076 38.4362 42.4727 38.0586 42.4727C37.694 42.4727 37.3294 42.4401 36.9648 42.375C37.1081 42.8958 37.1797 43.4036 37.1797 43.8984C37.1797 44.8229 36.7695 45.9297 35.9492 47.2188C35.3242 48.2083 34.901 48.7031 34.6797 48.7031Z" fill="url(#paint0_linear_49_2)"/>
<path d="M20.5273 13.7422C19.8503 13.7422 18.9518 13.6641 17.832 13.5078C16.7253 13.3516 15.8268 13.2083 15.1367 13.0781L14.7461 13.0195L15.5078 12.9219C16.0156 12.8698 16.862 12.7331 18.0469 12.5117C18.8281 12.3424 19.7331 12.0755 20.7617 11.7109C20.7617 11.6328 20.7617 11.5482 20.7617 11.457C20.7487 10.9622 20.6836 10.3242 20.5664 9.54297C20.4622 8.76172 20.2865 8.13672 20.0391 7.66797C19.6875 7.05599 19.2513 6.52214 18.7305 6.06641C18.2227 5.59766 17.7669 5.22656 17.3633 4.95312L16.7383 4.5625L17.2656 4.54297C17.6172 4.52995 18.0404 4.52344 18.5352 4.52344C19.0299 4.52344 19.5052 4.54297 19.9609 4.58203C20.4297 4.62109 20.7812 4.69271 21.0156 4.79688C21.25 4.88802 21.5104 4.97917 21.7969 5.07031C22.2786 5.21354 22.7279 5.40234 23.1445 5.63672C23.5612 5.85807 23.8151 6.1901 23.9062 6.63281C23.9974 7.0625 24.043 7.55729 24.043 8.11719C24.043 8.79427 23.9779 9.5625 23.8477 10.4219C23.9128 10.3828 23.9844 10.3503 24.0625 10.3242C24.9609 9.90755 25.4948 9.6276 25.6641 9.48438C25.7292 9.43229 25.8138 9.40625 25.918 9.40625C26.0221 9.40625 26.1784 9.45833 26.3867 9.5625C26.6081 9.65365 26.8424 9.79036 27.0898 9.97266C27.3893 10.194 27.5391 10.3438 27.5391 10.4219C27.5391 10.5 27.4935 10.6628 27.4023 10.9102C27.3112 11.1445 27.1745 11.4245 26.9922 11.75C26.8229 12.0755 26.6536 12.3424 26.4844 12.5508C26.3281 12.7461 26.2044 12.8438 26.1133 12.8438C26.0872 12.8438 26.0547 12.8438 26.0156 12.8438C25.9896 12.8307 25.9245 12.8242 25.8203 12.8242C25.5078 12.8242 24.9805 12.9219 24.2383 13.1172C23.9518 13.2083 23.6654 13.2865 23.3789 13.3516C23.3008 13.9635 23.2617 14.4258 23.2617 14.7383C23.4831 14.6341 23.6393 14.556 23.7305 14.5039C23.7956 14.4779 23.8997 14.4648 24.043 14.4648C24.3424 14.4648 24.8372 14.5299 25.5273 14.6602L26.9922 14.9922L26.7773 15.3242C26.6341 15.5456 26.4583 15.7865 26.25 16.0469C25.7812 16.6068 25.4167 16.8867 25.1562 16.8867L25 16.8672C24.8698 16.8151 24.6549 16.7891 24.3555 16.7891C24.1081 16.7891 23.6914 16.8151 23.1055 16.8672C22.5326 16.9193 21.7969 17.0104 20.8984 17.1406C20.013 17.2708 19.3034 17.3815 18.7695 17.4727C18.4961 17.5117 18.2227 17.5312 17.9492 17.5312C17.7148 17.5312 17.4154 17.5117 17.0508 17.4727C16.6992 17.4206 16.3607 17.3424 16.0352 17.2383L15.5273 17.1016L16.2109 17.0039C16.6536 16.9388 17.168 16.8542 17.7539 16.75C18.3398 16.6328 18.8672 16.5026 19.3359 16.3594C19.7917 16.2161 20.3255 16.0143 20.9375 15.7539C20.9375 15.7539 20.931 15.7474 20.918 15.7344C20.7096 15.4609 20.5208 15.3242 20.3516 15.3242C20.1302 15.3242 19.7721 15.4089 19.2773 15.5781L18.4375 15.8711L19.4336 15.2852C20.0326 14.9466 20.4102 14.7773 20.5664 14.7773H20.5859C20.651 14.7773 20.7031 14.5039 20.7422 13.957C20.7422 13.8919 20.7487 13.8203 20.7617 13.7422C20.6836 13.7422 20.6055 13.7422 20.5273 13.7422ZM19.8242 28.3906C19.7721 28.3906 19.4206 28.0651 18.7695 27.4141C18.4701 27.1146 18.1966 26.8411 17.9492 26.5938C17.207 26.8151 16.4844 27.043 15.7812 27.2773C15.2734 27.4596 14.7852 27.6224 14.3164 27.7656L14.5703 27.7461C15.0651 27.7461 15.5469 27.7201 16.0156 27.668L16.4844 27.6094C16.6146 27.6094 16.8424 27.6875 17.168 27.8438C17.5065 28 17.8385 28.1888 18.1641 28.4102C18.5026 28.6315 18.7109 28.8268 18.7891 28.9961C18.8021 29.0482 18.8086 29.1133 18.8086 29.1914C18.8086 29.2695 18.8021 29.3737 18.7891 29.5039C19.4271 29.2695 19.8698 29.0807 20.1172 28.9375C20.2604 28.8594 20.4036 28.8203 20.5469 28.8203C20.7552 28.8203 20.9961 28.931 21.2695 29.1523C21.556 29.3737 21.8164 29.6276 22.0508 29.9141L22.2852 30.168C22.3893 30.2721 22.4414 30.513 22.4414 30.8906C22.4414 31.151 22.3958 31.6198 22.3047 32.2969C22.2266 32.974 21.888 33.9245 21.2891 35.1484C20.7031 36.5417 20.0911 37.5638 19.4531 38.2148C18.737 38.931 18.125 39.2891 17.6172 39.2891C17.2917 39.2891 17.1289 39.1263 17.1289 38.8008C17.1289 38.5404 17.0378 38.2734 16.8555 38C16.6862 37.7266 16.4844 37.4727 16.25 37.2383C16.0156 37.0039 15.8073 36.8151 15.625 36.6719C15.7292 36.737 15.8659 36.7956 16.0352 36.8477C16.3607 36.9648 16.7188 37.0234 17.1094 37.0234C17.4219 37.0234 17.7734 36.9779 18.1641 36.8867C18.776 36.7695 19.3099 36.2357 19.7656 35.2852C20.2474 34.2565 20.4883 33.1953 20.4883 32.1016C20.4883 31.1641 20.2083 30.4935 19.6484 30.0898C19.2318 30.168 18.8672 30.2526 18.5547 30.3438C18.4766 30.6302 18.3854 30.9362 18.2812 31.2617C18.138 31.6523 18.0339 31.9844 17.9688 32.2578C17.9036 32.5312 17.7018 32.9805 17.3633 33.6055C17.0378 34.2435 16.569 34.8945 15.957 35.5586C15.3581 36.2357 14.6159 36.776 13.7305 37.1797C13.0664 37.4531 12.5065 37.6419 12.0508 37.7461C11.5951 37.8633 11.2305 37.9219 10.957 37.9219H10.7617C10.5794 37.9219 10.4297 37.9089 10.3125 37.8828L10.1562 37.8438C11.0026 37.5573 11.8815 37.0299 12.793 36.2617C13.7174 35.4935 14.5443 34.6276 15.2734 33.6641C15.8724 32.8568 16.3151 32.0885 16.6016 31.3594C16.5885 31.3724 16.5755 31.3854 16.5625 31.3984C16.4193 31.5286 16.2695 31.6393 16.1133 31.7305C15.8659 31.8867 15.5469 31.9648 15.1562 31.9648C14.9349 31.9648 14.6615 31.9388 14.3359 31.8867C14.0234 31.8346 13.6849 31.7565 13.3203 31.6523C12.9688 31.5482 12.6823 31.4505 12.4609 31.3594L12.1094 31.2227H12.2266C12.6823 31.2227 13.4701 31.0794 14.5898 30.793C15.3581 30.5977 16.1328 30.3763 16.9141 30.1289C16.9141 30.1029 16.9141 30.0768 16.9141 30.0508C16.9141 29.5951 16.7643 29.224 16.4648 28.9375C16.2174 28.7552 15.9245 28.5794 15.5859 28.4102C15.2604 28.2279 14.9609 28.0716 14.6875 27.9414L14.2969 27.7656C11.7839 28.5729 9.95443 28.9766 8.80859 28.9766C8.3138 28.9766 7.77995 28.8984 7.20703 28.7422C6.64714 28.5859 6.15885 28.3451 5.74219 28.0195C5.32552 27.681 5.03255 27.4076 4.86328 27.1992C4.77214 27.0951 4.71354 27.0365 4.6875 27.0234L5.35156 27.1211C6.36719 27.2773 7.30469 27.3555 8.16406 27.3555L8.76953 27.3359C10.1237 27.2578 12.8711 26.6979 17.0117 25.6562C16.7253 25.3958 16.4974 25.1875 16.3281 25.0312C15.5599 24.3542 15.013 24.0156 14.6875 24.0156C14.6354 24.0156 14.5833 24.0286 14.5312 24.0547L14.6094 23.9766C14.6484 23.9375 14.707 23.8919 14.7852 23.8398C14.8763 23.7747 14.9609 23.7292 15.0391 23.7031C15.1172 23.6771 15.1888 23.6641 15.2539 23.6641L15.3906 23.6836L15.9961 23.8789C17.0378 24.2695 17.8711 24.5169 18.4961 24.6211C18.7435 24.6862 18.9844 24.849 19.2188 25.1094C19.8698 24.9401 20.5534 24.7578 21.2695 24.5625C22.2461 24.3151 23.2357 24.0807 24.2383 23.8594C24.2513 23.638 24.2578 23.4232 24.2578 23.2148C24.2578 22.8112 24.2122 22.5443 24.1211 22.4141C24.1081 22.4141 24.1016 22.4141 24.1016 22.4141C23.9714 22.4141 23.8477 22.4076 23.7305 22.3945C23.5352 22.3555 23.138 22.3359 22.5391 22.3359C21.9401 22.3359 21.263 22.3424 20.5078 22.3555C19.8177 22.3815 19.2122 22.4076 18.6914 22.4336C18.8086 22.7461 18.8672 22.974 18.8672 23.1172C18.8672 23.5208 18.5872 23.7487 18.0273 23.8008H17.9492C17.7018 23.8008 17.4674 23.7422 17.2461 23.625C17.0247 23.4948 16.8945 23.2669 16.8555 22.9414C16.8034 22.4336 16.7122 21.8932 16.582 21.3203C16.4518 20.7344 16.3216 20.3372 16.1914 20.1289C16.1133 19.9727 15.7878 19.7253 15.2148 19.3867L14.375 18.9375H14.7852C15.0586 18.9375 15.3906 18.9766 15.7812 19.0547C16.5365 19.2109 17.1224 19.556 17.5391 20.0898L17.8906 19.9727C19.8307 19.4128 21.4062 18.931 22.6172 18.5273C23.3203 18.306 23.7305 18.1693 23.8477 18.1172C23.9779 18.0521 24.1211 17.9089 24.2773 17.6875C24.4336 17.4531 24.5508 17.3359 24.6289 17.3359C24.668 17.3359 24.707 17.3555 24.7461 17.3945C24.9414 17.5638 25.4688 17.8372 26.3281 18.2148C26.6667 18.3581 26.875 18.4557 26.9531 18.5078C27.0312 18.5599 27.0964 18.6966 27.1484 18.918C27.1875 19.0872 27.207 19.3346 27.207 19.6602C27.194 19.7904 27.1224 19.8815 26.9922 19.9336C26.7448 19.9857 26.2174 20.474 25.4102 21.3984L25.5273 21.4766C25.8008 21.6458 25.9375 21.7695 25.9375 21.8477C25.9375 21.9518 25.7617 22.0625 25.4102 22.1797C25.1367 22.2708 24.8763 22.3359 24.6289 22.375C25.1367 22.7917 25.5729 23.0846 25.9375 23.2539C26.0417 23.306 26.1393 23.3646 26.2305 23.4297C28.5482 22.9609 30.944 22.5573 33.418 22.2188L34.9219 22.0039C35.026 21.9909 35.1432 21.9844 35.2734 21.9844C35.5859 21.9844 36.0026 22.0495 36.5234 22.1797C37.0573 22.3099 37.5716 22.5182 38.0664 22.8047C38.5742 23.0781 38.8281 23.3646 38.8281 23.6641C38.7891 23.9635 38.6198 24.25 38.3203 24.5234C38.0339 24.7839 37.7148 24.9661 37.3633 25.0703C37.2331 25.1094 37.1094 25.1289 36.9922 25.1289C36.7969 25.1289 36.6276 25.0703 36.4844 24.9531C36.1328 24.6406 34.9935 24.4258 33.0664 24.3086C32.6367 24.2826 32.1745 24.2695 31.6797 24.2695C30.3125 24.2695 28.724 24.3737 26.9141 24.582C26.888 24.7122 26.8359 24.8555 26.7578 25.0117C26.6536 25.2201 26.3346 25.526 25.8008 25.9297C25.2799 26.3203 24.7005 26.7305 24.0625 27.1602C23.6068 27.4596 23.1966 27.7266 22.832 27.9609C23.0013 28.1302 23.2357 28.3255 23.5352 28.5469C23.8346 28.7682 24.1732 28.9701 24.5508 29.1523C24.9935 29.3477 25.306 29.6536 25.4883 30.0703C25.6706 30.474 25.8398 31.0078 25.9961 31.6719L26.2305 32.6289C26.4388 33.4102 26.569 34.1328 26.6211 34.7969C26.8815 34.7057 27.1745 34.5755 27.5 34.4062C27.9427 34.1719 28.2682 33.9701 28.4766 33.8008C28.6849 33.6315 28.9258 33.5339 29.1992 33.5078C29.3555 33.4818 29.5378 33.4622 29.7461 33.4492C29.7982 33.2669 29.8438 33.0456 29.8828 32.7852C29.9349 32.4466 29.9609 32.1276 29.9609 31.8281C29.9609 31.3333 29.8828 31.0859 29.7266 31.0859C29.6484 31.0859 29.5182 31.125 29.3359 31.2031C29.0755 31.3333 28.7174 31.431 28.2617 31.4961L28.0469 31.5156C27.8646 31.5156 27.6497 31.4831 27.4023 31.418C27.168 31.3529 26.9271 31.2747 26.6797 31.1836C26.4323 31.0794 26.2305 30.9818 26.0742 30.8906L25.8203 30.7734L26.2891 30.6758C26.6016 30.6237 26.9531 30.5521 27.3438 30.4609C27.7474 30.3568 28.112 30.2266 28.4375 30.0703C28.763 29.9141 29.0625 29.7122 29.3359 29.4648C29.6224 29.2174 29.8503 28.9961 30.0195 28.8008C30.1107 28.7096 30.1823 28.6445 30.2344 28.6055C30.2865 28.5534 30.3776 28.5273 30.5078 28.5273C30.612 28.5273 30.7878 28.5469 31.0352 28.5859C31.2826 28.625 31.5885 28.6966 31.9531 28.8008C32.3177 28.8919 32.5977 28.9701 32.793 29.0352C32.9622 29.1263 33.1055 29.3346 33.2227 29.6602C33.3268 29.9336 33.3789 30.207 33.3789 30.4805C33.3789 30.5326 33.3724 30.6562 33.3594 30.8516C33.3594 31.0339 33.2292 31.1641 32.9688 31.2422C32.7083 31.3073 32.4089 31.5482 32.0703 31.9648C31.7448 32.3815 31.4388 32.7982 31.1523 33.2148C31.0221 33.4102 30.9115 33.5729 30.8203 33.7031C30.9505 33.7812 31.0938 33.8854 31.25 34.0156C31.5234 34.237 31.6602 34.4128 31.6602 34.543C31.6602 34.569 31.6341 34.5885 31.582 34.6016C31.4388 34.6146 30.931 34.8164 30.0586 35.207C29.4076 35.4935 28.8672 35.7083 28.4375 35.8516C28.2161 35.9036 27.9883 35.9297 27.7539 35.9297C27.4674 35.9297 27.181 35.8841 26.8945 35.793L26.6406 35.7148C26.6146 36.3659 26.5104 36.7891 26.3281 36.9844C26.276 37.0234 26.224 37.043 26.1719 37.043C26.0547 37.043 25.8919 36.9583 25.6836 36.7891C25.4753 36.6198 25.2474 36.3659 25 36.0273C24.7526 35.7018 24.5703 35.4154 24.4531 35.168C24.375 34.9857 24.3034 34.6536 24.2383 34.1719C24.1732 33.6901 24.1016 33.1497 24.0234 32.5508C23.8672 30.819 23.6784 29.7383 23.457 29.3086C23.2487 28.8789 23.0469 28.5013 22.8516 28.1758L22.7344 28.0391C22.6042 28.1172 22.4805 28.1953 22.3633 28.2734L21.6211 28.7422L21.9727 28.3125C22.207 28.0391 22.4805 27.694 22.793 27.2773C23.5612 26.2487 23.9909 25.487 24.082 24.9922C22.8451 25.2266 21.6406 25.513 20.4688 25.8516C20.2604 25.9036 20.0586 25.9622 19.8633 26.0273C19.8763 26.0664 19.8958 26.1055 19.9219 26.1445C20.1302 26.5742 20.2344 26.9323 20.2344 27.2188C20.2344 27.6354 20.1562 27.974 20 28.2344C19.9479 28.3385 19.8893 28.3906 19.8242 28.3906ZM17.7148 20.3438C17.7669 20.4219 17.8125 20.5 17.8516 20.5781C18.2031 21.2812 18.4635 21.8477 18.6328 22.2773C21.3672 21.7305 22.9948 21.3398 23.5156 21.1055C23.5938 21.0794 23.6654 21.0534 23.7305 21.0273C23.7956 20.8451 23.8997 20.6107 24.043 20.3242C24.2643 19.8815 24.375 19.5885 24.375 19.4453C24.375 19.3151 24.2904 19.25 24.1211 19.25C23.8086 19.25 23.0534 19.4453 21.8555 19.8359C21.1263 20.0703 20.5404 20.2331 20.0977 20.3242C19.8372 20.3633 19.5443 20.3828 19.2188 20.3828C18.6458 20.3828 18.151 20.3698 17.7344 20.3438H17.7148Z" fill="url(#paint1_linear_49_2)"/>
<defs>
<linearGradient id="paint0_linear_49_2" x1="31.5" y1="34" x2="70" y2="66" gradientUnits="userSpaceOnUse">
<stop stop-color="#4095C5"/>
<stop offset="1" stop-color="#053A58"/>
</linearGradient>
<linearGradient id="paint1_linear_49_2" x1="0" y1="0" x2="33" y2="33" gradientUnits="userSpaceOnUse">
<stop stop-color="#96D9FF"/>
<stop offset="1" stop-color="#4095C5"/>
</linearGradient>
</defs>
</svg>
